<svg width="24" height="24" viewBox="0 0 24 24" fill="none" xmlns="http://www.w3.org/2000/svg">
<path d="M6 0C5.20435 0 4.44129 0.316071 3.87868 0.87868C3.31607 1.44129 3 2.20435 3 3V21C3 21.7956 3.31607 22.5587 3.87868 23.1213C4.44129 23.6839 5.20435 24 6 24H18C18.7956 24 19.5587 23.6839 20.1213 23.1213C20.6839 22.5587 21 21.7956 21 21V3C21 2.20435 20.6839 1.44129 20.1213 0.87868C19.5587 0.316071 18.7956 0 18 0L6 0ZM6 1.5H18C18.3978 1.5 18.7794 1.65804 19.0607 1.93934C19.342 2.22064 19.5 2.60218 19.5 3V21C19.5 21.3978 19.342 21.7794 19.0607 22.0607C18.7794 22.342 18.3978 22.5 18 22.5H6C5.60218 22.5 5.22064 22.342 4.93934 22.0607C4.65804 21.7794 4.5 21.3978 4.5 21V3C4.5 2.60218 4.65804 2.22064 4.93934 1.93934C5.22064 1.65804 5.60218 1.5 6 1.5Z" fill="black"/>
<path d="M6.90426 18.1305C6.6119 18.0136 6.37635 17.7877 6.24726 17.5005C5.95476 16.9185 6.05226 16.3365 6.36726 15.8475C6.66426 15.387 7.15626 14.9955 7.71276 14.667C8.41767 14.2672 9.16279 13.9429 9.93576 13.6995C10.536 12.6204 11.0681 11.5047 11.5288 10.359C11.2533 9.73317 11.0374 9.08281 10.8838 8.41651C10.7548 7.81651 10.7053 7.22251 10.8148 6.71251C10.9273 6.18151 11.2258 5.70451 11.7898 5.47801C12.0778 5.36251 12.3898 5.29801 12.6928 5.36251C12.8452 5.39496 12.9885 5.46093 13.1122 5.55562C13.236 5.65032 13.3371 5.77138 13.4083 5.91001C13.5403 6.15601 13.5883 6.44401 13.5988 6.71701C13.6093 6.99751 13.5808 7.30951 13.5283 7.63801C13.4023 8.40301 13.1233 9.33901 12.7483 10.329C13.1621 11.214 13.654 12.0604 14.2183 12.858C14.8859 12.8053 15.5574 12.8305 16.2193 12.933C16.7653 13.0305 17.3203 13.2255 17.6593 13.6305C17.8393 13.8465 17.9488 14.1105 17.9593 14.4075C17.9698 14.6955 17.8888 14.9805 17.7523 15.252C17.634 15.5036 17.4507 15.719 17.2213 15.876C16.9945 16.024 16.7267 16.0964 16.4563 16.083C15.9598 16.062 15.4753 15.789 15.0568 15.4575C14.5479 15.0367 14.0894 14.5585 13.6903 14.0325C12.6759 14.1476 11.6735 14.3513 10.6948 14.6415C10.246 15.4365 9.73386 16.1939 9.16326 16.9065C8.72826 17.4315 8.25126 17.889 7.77426 18.087C7.50019 18.211 7.18933 18.2265 6.90426 18.1305ZM8.97276 15.279C8.72376 15.393 8.49276 15.513 8.28426 15.636C7.79226 15.927 7.47276 16.2105 7.31376 16.4565C7.17276 16.674 7.16976 16.8315 7.25376 16.998C7.26876 17.031 7.28376 17.052 7.29276 17.064C7.31065 17.0592 7.32819 17.0532 7.34526 17.046C7.55076 16.962 7.87776 16.6935 8.29776 16.188C8.53663 15.8956 8.76187 15.5922 8.97276 15.279ZM11.4328 13.284C11.9336 13.167 12.439 13.0704 12.9478 12.9945C12.6745 12.5766 12.4193 12.1472 12.1828 11.7075C11.9475 12.2394 11.6974 12.7646 11.4328 13.2825V13.284ZM15.1018 13.959C15.3268 14.202 15.5458 14.409 15.7543 14.574C16.1143 14.859 16.3648 14.9535 16.5013 14.958C16.5378 14.9628 16.5749 14.9548 16.6063 14.9355C16.6687 14.8862 16.7172 14.8216 16.7473 14.748C16.8006 14.6566 16.831 14.5537 16.8358 14.448C16.8349 14.4128 16.821 14.3791 16.7968 14.3535C16.7188 14.2605 16.4968 14.1255 16.0198 14.04C15.7163 13.9893 15.4094 13.9627 15.1018 13.9605V13.959ZM12.1168 8.70001C12.243 8.2928 12.3432 7.87796 12.4168 7.45801C12.4633 7.17601 12.4813 6.94351 12.4738 6.76051C12.4742 6.65955 12.458 6.55921 12.4258 6.46351C12.3507 6.4728 12.2774 6.49302 12.2083 6.52351C12.0778 6.57601 11.9713 6.68251 11.9143 6.94801C11.8543 7.23601 11.8693 7.65151 11.9833 8.18101C12.0193 8.34751 12.0643 8.52151 12.1183 8.70001H12.1168Z" fill="black"/>
</svg>
